<svg id="Layer_1" data-name="Layer 1" xmlns="http://www.w3.org/2000/svg" width="5.07in" height="2.94in" viewBox="0 0 364.96 211.68"><defs><style>.cls-1{fill:#c26437;}.cls-2{fill:#b7a729;}</style></defs><title>logo-madsen-dentistry</title><rect class="cls-1" x="22.34" y="61.13" width="342.61" height="150.55"/><path class="cls-2" d="M93.56,152.5c0-5.12-1.35-7.65-4.06-7.65s-4.1,2-4.1,6.14v17.34H80V152.5c0-5.12-1.35-7.65-4.1-7.65s-4.1,2.53-4.1,7.65v15.83H66.47V149.91c0-3.5.87-6.19,2.66-8.08a8.84,8.84,0,0,1,6.81-2.64,8.4,8.4,0,0,1,6.81,3.07,8.32,8.32,0,0,1,6.76-3.07,8.9,8.9,0,0,1,6.81,2.64c1.79,1.88,2.66,4.58,2.66,8.08v18.42H93.56V152.5Z" transform="translate(-7.11 -15.16)"/><path class="cls-2" d="M113.77,166.39a5.53,5.53,0,0,1-4.89,2.32,6.49,6.49,0,0,1-5.58-3,12.12,12.12,0,0,1-2.14-7.32,12.35,12.35,0,0,1,2.05-7.22,6.49,6.49,0,0,1,5.54-2.91,5.37,5.37,0,0,1,5,2.58v-2.21h4.76v19.71h-4.76v-2Zm-1.22-12.33a3.41,3.41,0,0,0-2.57-1.51,3.35,3.35,0,0,0-3,1.88,9.09,9.09,0,0,0,0,8.13,3.31,3.31,0,0,0,3,1.94,3.67,3.67,0,0,0,2.4-1.35,4,4,0,0,0,1.4-2.69v-3.34A4.64,4.64,0,0,0,112.54,154.06Z" transform="translate(-7.11 -15.16)"/><path class="cls-2" d="M133.27,166.39a4.58,4.58,0,0,1-2.22,1.72,7.15,7.15,0,0,1-2.66.59,6.49,6.49,0,0,1-5.58-3,12.12,12.12,0,0,1-2.14-7.32,12.35,12.35,0,0,1,2.05-7.22,6.49,6.49,0,0,1,5.54-2.91c2.57,0,4.28.86,5,2.58V134.51H138v33.87h-4.76v-2ZM132,154.06a3.41,3.41,0,0,0-2.57-1.51,3.35,3.35,0,0,0-3,1.88,9.09,9.09,0,0,0,0,8.13,3.31,3.31,0,0,0,3,1.94,3.7,3.7,0,0,0,2.44-1.29,3.92,3.92,0,0,0,1.35-2.75v-3.34A4.64,4.64,0,0,0,132,154.06Z" transform="translate(-7.11 -15.16)"/><path class="cls-2" d="M141.87,167.52a5.35,5.35,0,0,1-2.09-4.47h4.1c0.17,1.45.83,2.15,2,2.15a2.18,2.18,0,0,0,1.4-.54,1.67,1.67,0,0,0,.74-1.35q0-1.54-2-2.58c-2.4-1.24-3.62-1.88-3.71-1.94a5.13,5.13,0,0,1-2-4.36,6,6,0,0,1,1.75-4.58,5.73,5.73,0,0,1,4.06-1.56,6.44,6.44,0,0,1,4,1.18,5,5,0,0,1,2,4.15h-4c-0.13-1.24-.7-1.88-1.74-1.88a2.43,2.43,0,0,0-1.4.49,1.57,1.57,0,0,0-.83,1.35c0,1.08.7,1.94,2.09,2.64,2.49,1.18,3.75,1.83,3.84,1.88a5.12,5.12,0,0,1,2.09,4.42,6.54,6.54,0,0,1-1.79,4.9,6,6,0,0,1-4.32,1.51A6.65,6.65,0,0,1,141.87,167.52Z" transform="translate(-7.11 -15.16)"/><path class="cls-2" d="M160.32,163.54a3.38,3.38,0,0,0,2.62,1.35,4.63,4.63,0,0,0,2.18-.65,2.17,2.17,0,0,0,1.44-1.78l5.15-.05a9.69,9.69,0,0,1-3.71,5,9.12,9.12,0,0,1-5.37,1.67,7.86,7.86,0,0,1-6.19-2.85,12.84,12.84,0,0,1,0-15.13,8.17,8.17,0,0,1,6.41-2.85,7.72,7.72,0,0,1,6.67,3.5,15.08,15.08,0,0,1,2.23,8.67H158.84A6.42,6.42,0,0,0,160.32,163.54Zm5.19-10.07a3.26,3.26,0,0,0-2.62-1.35,3.08,3.08,0,0,0-2.53,1.29,6.85,6.85,0,0,0-1.4,3.23h7.85A6.78,6.78,0,0,0,165.51,153.47Z" transform="translate(-7.11 -15.16)"/><path class="cls-2" d="M183.71,156.54q0-3.72-2.49-3.72c-1.7,0-2.53,1.24-2.53,3.72v11.9h-4.84V155.89A7.68,7.68,0,0,1,176,150a7.32,7.32,0,0,1,5.19-1.78,7.21,7.21,0,0,1,5.15,1.78,7.67,7.67,0,0,1,2.18,5.92v12.55h-4.84v-11.9Z" transform="translate(-7.11 -15.16)"/><path class="cls-2" d="M201.07,168.38V139.73h7.07a12.06,12.06,0,0,1,7.2,1.88,11.88,11.88,0,0,1,4,5.17,18.09,18.09,0,0,1,1.4,7.05,18.8,18.8,0,0,1-1.44,7.27,12.18,12.18,0,0,1-4,5.33,11.59,11.59,0,0,1-7.11,1.94h-7.07Zm5.37-23.53v18.42h2.18a5.66,5.66,0,0,0,5-2.69,11.68,11.68,0,0,0,1.66-6.52,11.29,11.29,0,0,0-1.7-6.57,5.9,5.9,0,0,0-5.1-2.64h-2Z" transform="translate(-7.11 -15.16)"/><path class="cls-2" d="M228.82,163.54a3.38,3.38,0,0,0,2.62,1.35,4.64,4.64,0,0,0,2.18-.65,2.17,2.17,0,0,0,1.44-1.78l5.15-.05a9.69,9.69,0,0,1-3.71,5,9.12,9.12,0,0,1-5.37,1.67,7.86,7.86,0,0,1-6.19-2.85,12.84,12.84,0,0,1,0-15.13,8.17,8.17,0,0,1,6.41-2.85,7.72,7.72,0,0,1,6.67,3.5,15.08,15.08,0,0,1,2.22,8.67H227.34A6.42,6.42,0,0,0,228.82,163.54ZM234,153.47a3.26,3.26,0,0,0-2.62-1.35,3.08,3.08,0,0,0-2.53,1.29,6.86,6.86,0,0,0-1.4,3.23h7.85A6.79,6.79,0,0,0,234,153.47Z" transform="translate(-7.11 -15.16)"/><path class="cls-2" d="M252.21,156.54q0-3.72-2.49-3.72c-1.7,0-2.53,1.24-2.53,3.72v11.9h-4.84V155.89a7.68,7.68,0,0,1,2.18-5.92,7.32,7.32,0,0,1,5.19-1.78,7.21,7.21,0,0,1,5.15,1.78,7.68,7.68,0,0,1,2.18,5.92v12.55h-4.84v-11.9Z" transform="translate(-7.11 -15.16)"/><path class="cls-2" d="M265.73,161.76c0,1,.7,1.67,2,2l0,4.63c-1.53.05-2.36,0.11-2.57,0.11-2.92,0-4.36-1.4-4.36-4.15v-11.2H259v-4.52h1.88v-5.28h4.84v5.28h2.09v4.52h-2.09v8.62Z" transform="translate(-7.11 -15.16)"/><path class="cls-2" d="M271.1,145.12a3.76,3.76,0,0,1-.74-2.32,3.65,3.65,0,0,1,.74-2.32,2.3,2.3,0,0,1,3.71-.05,3.68,3.68,0,0,1,.79,2.37,3.64,3.64,0,0,1-.74,2.32A2.43,2.43,0,0,1,273,146,2.37,2.37,0,0,1,271.1,145.12Zm-0.52,3.45h4.8v19.82h-4.8V148.57Z" transform="translate(-7.11 -15.16)"/><path class="cls-2" d="M280,167.52a5.35,5.35,0,0,1-2.09-4.47h4.1c0.17,1.45.83,2.15,2,2.15a2.18,2.18,0,0,0,1.4-.54,1.67,1.67,0,0,0,.74-1.35q0-1.54-2-2.58c-2.4-1.24-3.62-1.88-3.71-1.94a5.13,5.13,0,0,1-2-4.36,6,6,0,0,1,1.75-4.58,5.73,5.73,0,0,1,4.06-1.56,6.44,6.44,0,0,1,4,1.18,5,5,0,0,1,2,4.15h-4c-0.13-1.24-.7-1.88-1.75-1.88a2.44,2.44,0,0,0-1.4.49,1.57,1.57,0,0,0-.83,1.35c0,1.08.7,1.94,2.09,2.64,2.49,1.18,3.75,1.83,3.84,1.88a5.12,5.12,0,0,1,2.09,4.42,6.54,6.54,0,0,1-1.79,4.9,6,6,0,0,1-4.32,1.51A6.64,6.64,0,0,1,280,167.52Z" transform="translate(-7.11 -15.16)"/><path class="cls-2" d="M298.76,161.76c0,1,.7,1.67,2,2l0,4.63c-1.53.05-2.36,0.11-2.57,0.11-2.92,0-4.36-1.4-4.36-4.15v-11.2H292v-4.52h1.88v-5.28h4.84v5.28h2.09v4.52h-2.09v8.62Z" transform="translate(-7.11 -15.16)"/><path class="cls-2" d="M303.26,168.44V155.89a8.45,8.45,0,0,1,1.75-5.71,6.09,6.09,0,0,1,4.8-2h0.35v4.63c-1.35,0-2,1.24-2,3.77v11.9h-4.84Z" transform="translate(-7.11 -15.16)"/><path class="cls-2" d="M313.07,184.32l4.58-15-5.93-20.62H317l3.32,12.49,3.14-12.49h5.1l-10.38,35.65h-5.06Z" transform="translate(-7.11 -15.16)"/><path class="cls-2" d="M103,76.29h18.26v-38c0-7.82-2.77-13.69-8.15-17.77-4.73-3.59-11.25-5.38-19.4-5.38-9,0-15,2.12-18.42,6.36-3.91-4.24-9.94-6.36-18.26-6.36-8.15,0-14.67,1.79-19.4,5.38-5.38,4.07-8.15,9.94-8.15,17.77v38H47.55V40.43c0-7.5,3.1-11.25,9.45-11.25q9.29,0,9.29,11.25V76.29H84.39V40.43q0-11.25,9.29-11.25T103,40.43V76.29h0Z" transform="translate(-7.11 -15.16)"/><path class="cls-2" d="M74.75,118C37.46,118,7.11,88,7.11,51a1.85,1.85,0,0,1,3.7,0c0,34.88,28.68,63.27,63.94,63.27S138.69,85.93,138.69,51a1.85,1.85,0,0,1,3.7,0C142.39,88,112,118,74.75,118Z" transform="translate(-7.11 -15.16)"/></svg>